<?xml version="1.0" standalone="no"?>
<!DOCTYPE svg PUBLIC "-//W3C//DTD SVG 20010904//EN"
 "http://www.w3.org/TR/2001/REC-SVG-20010904/DTD/svg10.dtd">
<svg version="1.0" xmlns="http://www.w3.org/2000/svg"
 width="100.000000pt" height="100.000000pt" viewBox="0 0 100.000000 100.000000"
 preserveAspectRatio="xMidYMid meet">
<metadata>
Created by potrace 1.16, written by Peter Selinger 2001-2019
</metadata>
<g transform="translate(0.000000,100.000000) scale(0.100000,-0.100000)"
fill="#000000" stroke="none">
<path d="M66 894 l-26 -27 0 -287 0 -287 26 -27 c23 -23 35 -26 92 -26 l65 0
-6 -37 c-4 -20 -18 -48 -32 -63 -14 -14 -25 -34 -25 -44 0 -16 7 -18 54 -14
72 6 136 45 177 108 l32 50 242 0 242 0 27 26 26 27 0 287 0 287 -26 27 -27
26 -407 0 -407 0 -27 -26z m831 -37 c16 -16 18 -41 18 -277 0 -235 -2 -261
-18 -277 -16 -16 -43 -18 -267 -21 l-250 -3 -16 -34 c-16 -35 -86 -105 -104
-105 -6 0 -6 9 0 26 12 30 13 84 2 100 -4 6 -37 13 -75 16 -105 6 -101 -4
-105 281 -3 257 1 291 40 307 13 5 182 8 390 7 338 -2 369 -3 385 -20z"/>
<path d="M497 723 c-16 -16 -14 -20 35 -70 l52 -53 -132 0 c-125 0 -132 -1
-132 -20 0 -19 7 -20 132 -20 l132 0 -52 -53 c-50 -51 -52 -54 -34 -70 17 -16
22 -12 97 63 l80 80 -80 80 c-76 76 -81 79 -98 63z"/>
</g>
</svg>
