<?xml version="1.0" standalone="no"?>
<!DOCTYPE svg PUBLIC "-//W3C//DTD SVG 20010904//EN"
 "http://www.w3.org/TR/2001/REC-SVG-20010904/DTD/svg10.dtd">
<svg version="1.0" xmlns="http://www.w3.org/2000/svg"
 width="225.000000pt" height="225.000000pt" viewBox="0 0 225.000000 225.000000"
 preserveAspectRatio="xMidYMid meet">
<metadata>
Created by potrace 1.16, written by Peter Selinger 2001-2019
</metadata>
<g transform="translate(0.000000,225.000000) scale(0.100000,-0.100000)"
fill="#000000" stroke="none">
<path d="M554 1816 l-34 -34 0 -657 0 -657 34 -34 34 -34 537 0 537 0 34 34
34 34 0 480 0 481 -162 3 c-185 3 -201 9 -238 84 -17 35 -20 60 -20 187 l0
147 -361 0 -361 0 -34 -34z m360 -451 c45 -22 70 -67 63 -117 -13 -94 -116
-136 -191 -77 -57 45 -51 143 13 186 40 27 71 29 115 8z m409 -287 c9 -7 53
-107 97 -221 67 -169 80 -211 70 -223 -19 -22 -668 -16 -682 6 -8 12 10 49 72
150 46 74 88 138 94 142 29 20 63 7 111 -42 27 -27 53 -50 57 -50 4 0 32 51
61 114 61 127 84 151 120 124z"/>
<path d="M1370 1691 c0 -133 1 -141 24 -168 24 -28 24 -28 170 -31 80 -2 146
0 146 5 0 15 -311 333 -326 333 -11 0 -14 -26 -14 -139z"/>
</g>
</svg>
