<?xml version="1.0" standalone="no"?>
<!DOCTYPE svg PUBLIC "-//W3C//DTD SVG 20010904//EN"
 "http://www.w3.org/TR/2001/REC-SVG-20010904/DTD/svg10.dtd">
<svg version="1.0" xmlns="http://www.w3.org/2000/svg"
 width="880.000000pt" height="933.000000pt" viewBox="0 0 880.000000 933.000000"
 preserveAspectRatio="xMidYMid meet">
<metadata>
Created by potrace 1.16, written by Peter Selinger 2001-2019
</metadata>
<g transform="translate(0.000000,933.000000) scale(0.100000,-0.100000)"
fill="#000000" stroke="none">
<path d="M948 8920 c-140 -24 -248 -81 -354 -185 -64 -64 -90 -97 -123 -165
-77 -158 -71 168 -71 -3700 0 -3013 2 -3484 15 -3545 39 -184 177 -363 345
-443 164 -78 -158 -72 3634 -72 3809 0 3479 -7 3645 77 152 76 258 197 319
365 l27 73 3 3513 c2 3896 8 3583 -65 3731 -56 114 -178 234 -295 291 -54 26
-118 47 -165 55 -66 12 -624 14 -3473 13 -1867 0 -3416 -4 -3442 -8z m5662
-4050 l0 -3300 -2210 0 -2210 0 0 3300 0 3300 2210 0 2210 0 0 -3300z m-4920
2886 l0 -384 -82 -5 c-73 -4 -523 -4 -650 1 l-48 2 0 385 0 385 390 0 390 0 0
-384z m6190 -6 l0 -390 -385 0 -385 0 0 390 0 390 385 0 385 0 0 -390z m-6192
-1147 l-3 -388 -385 0 -385 0 -3 375 c-1 206 0 381 3 387 3 10 90 13 390 13
l385 0 -2 -387z m6192 -8 l0 -385 -385 0 -385 0 0 385 0 385 385 0 385 0 0
-385z m-6206 -761 c14 -5 16 -49 16 -390 l0 -384 -387 2 -388 3 -3 379 c-2
297 1 381 10 388 15 9 728 11 752 2z m6206 -389 l0 -385 -385 0 -385 0 0 385
0 385 385 0 385 0 0 -385z m-6190 -1150 l0 -385 -390 0 -390 0 0 385 0 385
390 0 390 0 0 -385z m6188 -2 l-3 -388 -380 0 -380 0 -3 388 -2 387 385 0 385
0 -2 -387z m-6188 -1148 l0 -385 -390 0 -390 0 0 378 c0 208 3 382 7 385 3 4
179 7 390 7 l383 0 0 -385z m6190 -5 l0 -390 -385 0 -385 0 0 390 0 390 385 0
385 0 0 -390z m-6190 -1150 l0 -390 -387 2 -388 3 -3 375 c-1 206 0 381 3 387
3 10 90 13 390 13 l385 0 0 -390z m6153 382 l37 -2 0 -385 0 -385 -385 0 -385
0 0 384 0 385 48 3 c46 3 611 3 685 0z"/>
<path d="M3427 6123 c-10 -9 -9 -2501 1 -2506 4 -3 169 89 367 203 198 114
684 395 1080 623 396 229 721 420 723 425 1 5 -476 285 -1060 622 -585 338
-1072 619 -1084 627 -11 7 -24 10 -27 6z"/>
</g>
</svg>
