<?xml version="1.0" standalone="no"?>
<!DOCTYPE svg PUBLIC "-//W3C//DTD SVG 20010904//EN"
 "http://www.w3.org/TR/2001/REC-SVG-20010904/DTD/svg10.dtd">
<svg version="1.0" xmlns="http://www.w3.org/2000/svg"
 width="512.000000pt" height="512.000000pt" viewBox="0 0 512.000000 512.000000"
 preserveAspectRatio="xMidYMid meet">
<metadata>
Created by potrace 1.16, written by Peter Selinger 2001-2019
</metadata>
<g transform="translate(0.000000,512.000000) scale(0.100000,-0.100000)"
fill="#000000" stroke="none">
<path d="M1720 4226 c-338 -60 -581 -335 -597 -676 -9 -186 46 -346 162 -477
l55 -61 -36 -12 c-118 -39 -362 -172 -503 -273 -113 -82 -268 -232 -347 -337
-79 -105 -166 -276 -200 -395 -21 -73 -25 -103 -20 -157 13 -143 77 -242 191
-299 113 -56 249 -41 352 37 l33 25 0 -345 0 -346 80 0 80 0 0 505 c0 330 4
522 11 557 17 83 67 166 144 244 110 111 243 173 448 210 127 23 401 23 521 0
241 -46 408 -152 494 -314 61 -114 62 -125 62 -689 l0 -513 1096 0 1095 0 -3
527 c-4 521 -4 529 -27 590 -88 241 -308 396 -627 443 -38 5 -177 15 -309 20
-468 19 -649 76 -1200 377 -71 40 -171 90 -222 113 l-92 42 50 60 c89 108 132
217 145 373 8 100 -15 241 -55 335 -129 307 -460 492 -781 436z m277 -175
c182 -55 331 -208 378 -386 22 -86 20 -228 -5 -309 -45 -146 -154 -273 -292
-340 -91 -45 -169 -60 -278 -53 -295 19 -520 260 -520 557 0 139 51 267 150
374 111 120 239 175 405 176 70 0 119 -6 162 -19z"/>
<path d="M3800 4226 c-229 -40 -428 -189 -525 -391 -56 -117 -75 -198 -75
-321 1 -582 659 -919 1135 -579 94 66 170 156 221 260 58 120 75 188 75 316 1
205 -63 364 -208 512 -161 164 -400 242 -623 203z"/>
</g>
</svg>
