<?xml version="1.0" standalone="no"?>
<!DOCTYPE svg PUBLIC "-//W3C//DTD SVG 20010904//EN"
 "http://www.w3.org/TR/2001/REC-SVG-20010904/DTD/svg10.dtd">
<svg version="1.0" xmlns="http://www.w3.org/2000/svg"
 width="720.000000pt" height="664.000000pt" viewBox="0 0 720.000000 664.000000"
 preserveAspectRatio="xMidYMid meet">
<metadata>
Created by potrace 1.16, written by Peter Selinger 2001-2019
</metadata>
<g transform="translate(0.000000,664.000000) scale(0.100000,-0.100000)"
fill="#000000" stroke="none">
<path d="M3365 6383 c-123 -14 -202 -27 -275 -44 -97 -22 -271 -77 -284 -89
-17 -16 54 -123 140 -211 68 -70 140 -111 198 -111 98 -2 210 95 291 254 37
71 85 187 85 205 0 4 -113 1 -155 -4z"/>
<path d="M3564 6359 c12 -66 113 -252 172 -317 110 -122 193 -145 298 -81 32
19 78 54 103 79 51 51 147 200 135 211 -11 11 -116 45 -229 74 -124 32 -249
52 -382 61 l-104 7 7 -34z"/>
<path d="M2740 6227 c-220 -94 -420 -220 -615 -388 -120 -103 -194 -181 -301
-314 -292 -364 -474 -745 -584 -1225 -97 -421 -97 -960 0 -1395 129 -575 415
-1092 811 -1469 231 -219 485 -379 779 -489 345 -129 767 -162 1118 -86 152
33 357 100 452 149 l42 21 -46 52 c-93 104 -191 236 -303 405 -93 140 -118
172 -133 167 -128 -41 -226 -57 -375 -62 -240 -8 -399 24 -610 122 -243 113
-485 325 -667 585 -272 389 -419 958 -380 1472 38 513 198 931 497 1303 81
101 97 126 153 240 87 176 139 400 178 763 9 84 14 155 13 156 -2 2 -15 -1
-29 -7z"/>
<path d="M4310 6222 c0 -9 9 -98 20 -196 40 -345 105 -597 201 -775 22 -42 78
-123 124 -181 273 -347 423 -709 480 -1161 27 -220 19 -529 -20 -739 -31 -164
-89 -370 -104 -370 -4 0 -45 55 -91 123 -227 333 -351 483 -510 618 -183 156
-343 221 -545 223 -133 1 -191 -12 -312 -70 -108 -52 -187 -120 -261 -227 -52
-76 -117 -211 -129 -268 -5 -26 -14 -35 -57 -52 -100 -41 -223 -111 -311 -177
-93 -71 -228 -200 -208 -200 6 0 58 11 115 24 56 14 141 30 188 35 106 14 333
14 425 1 241 -35 440 -131 583 -284 76 -82 125 -154 282 -416 206 -345 326
-508 509 -691 285 -284 558 -409 896 -410 295 0 572 93 758 255 281 246 427
659 362 1026 -29 164 -81 277 -173 379 l-57 63 0 -109 c0 -106 -1 -111 -39
-188 -53 -109 -177 -233 -291 -292 -203 -105 -359 -119 -522 -47 -29 13 -53
30 -53 38 0 7 17 49 39 92 100 204 202 507 245 729 103 535 70 1123 -91 1604
-182 547 -476 989 -873 1311 -171 139 -343 245 -532 328 -44 19 -48 19 -48 4z
m-643 -2812 c21 -13 36 -32 44 -59 10 -34 9 -44 -7 -73 -11 -18 -37 -41 -58
-52 -113 -55 -211 92 -116 177 37 33 90 36 137 7z"/>
</g>
</svg>
